<?xml version="1.0" standalone="no"?>
<!DOCTYPE svg PUBLIC "-//W3C//DTD SVG 20010904//EN"
 "http://www.w3.org/TR/2001/REC-SVG-20010904/DTD/svg10.dtd">
<svg version="1.0" xmlns="http://www.w3.org/2000/svg"
 width="260.000000pt" height="260.000000pt" viewBox="0 0 260.000000 260.000000"
 preserveAspectRatio="xMidYMid meet">
<metadata>
Created by potrace 1.14, written by Peter Selinger 2001-2017
</metadata>
<g transform="translate(0.000000,260.000000) scale(0.100000,-0.100000)"
fill="#000000" stroke="none">
<path d="M2466 2429 c8 -16 11 -29 7 -29 -5 0 -1 -5 7 -11 13 -9 13 -10 0 -6
-8 2 -15 9 -15 15 0 5 -3 14 -7 18 -8 8 -2 -31 7 -46 4 -6 12 -7 18 -3 7 4 6
-1 -2 -10 -8 -10 -16 -15 -19 -12 -3 3 -15 -4 -28 -16 -12 -11 -28 -21 -35
-22 -18 -3 -65 -35 -62 -44 1 -3 7 -10 15 -14 10 -7 10 -9 1 -10 -7 -1 -19 -2
-25 -3 -7 -1 -16 5 -20 14 -4 8 -6 -2 -4 -23 4 -47 -6 -54 -34 -25 -16 17 -19
18 -15 5 5 -13 3 -16 -8 -12 -8 4 -17 -1 -21 -10 -3 -9 -10 -13 -16 -10 -6 4
-7 -1 -3 -12 6 -16 5 -16 -10 -4 -11 9 -17 10 -17 2 0 -6 5 -12 10 -12 6 -1
14 -2 19 -3 5 0 13 -5 18 -10 5 -5 3 -6 -4 -2 -7 4 -13 2 -13 -4 0 -7 -6 -8
-19 -1 -16 9 -18 8 -14 -9 4 -16 2 -19 -13 -14 -14 4 -15 3 -6 -4 8 -5 14 -11
15 -14 3 -8 -25 -38 -35 -38 -6 0 -5 7 2 15 7 9 11 18 8 20 -3 3 -11 -6 -18
-20 -7 -14 -17 -25 -22 -25 -5 0 -6 5 -3 10 3 6 1 10 -5 10 -7 0 -10 -7 -7
-14 4 -11 1 -13 -11 -9 -13 4 -12 2 3 -10 16 -13 18 -18 7 -29 -11 -11 -12
-10 -7 3 4 10 0 16 -10 16 -8 0 -15 -4 -15 -9 0 -5 -5 -6 -10 -3 -6 4 -9 1 -8
-7 2 -7 -2 -12 -8 -11 -9 2 -9 -4 -1 -22 7 -13 15 -21 20 -18 5 3 3 -4 -5 -16
-7 -12 -14 -17 -16 -11 -2 6 -8 7 -13 4 -6 -3 -5 -11 2 -20 7 -9 8 -14 1 -14
-6 0 -12 5 -14 11 -3 8 -11 8 -28 -2 -29 -16 -41 -30 -34 -40 2 -4 0 -10 -5
-13 -5 -4 -13 -1 -17 5 -4 8 -3 9 5 5 6 -4 11 -4 10 1 -4 22 3 34 27 46 17 9
23 17 15 21 -6 4 -11 1 -11 -6 -1 -9 -5 -7 -14 5 -12 16 -14 16 -20 2 -4 -10
-2 -14 5 -9 7 4 10 1 7 -7 -3 -8 -10 -13 -16 -12 -6 2 -9 -3 -6 -11 3 -8 -4
-21 -16 -29 -12 -9 -20 -19 -17 -24 3 -4 -1 -17 -9 -28 -9 -12 -14 -14 -14 -5
0 7 -3 11 -6 7 -3 -3 -3 -11 1 -18 6 -8 13 -5 26 12 10 13 19 20 18 14 0 -5
-6 -18 -13 -28 -11 -15 -19 -16 -34 -8 -13 7 -23 7 -32 -2 -10 -10 -11 -7 -6
13 6 23 6 23 -5 5 -7 -11 -16 -23 -21 -26 -6 -3 -9 -9 -9 -13 3 -20 0 -26 -10
-20 -8 4 -8 0 0 -15 9 -15 9 -27 1 -41 -6 -11 -8 -26 -4 -33 5 -9 4 -9 -5 -1
-9 9 -10 17 -2 31 7 15 7 20 -4 20 -8 0 -11 -7 -7 -16 5 -14 4 -14 -13 -1 -17
14 -17 14 -5 -6 10 -16 10 -25 1 -40 -9 -13 -11 -14 -8 -3 4 13 -1 16 -28 16
-19 -1 -31 -5 -29 -9 3 -5 9 -6 13 -4 4 3 8 -1 8 -7 0 -7 -9 -14 -19 -14 -10
-1 -16 2 -13 6 2 5 -3 15 -13 22 -15 13 -16 12 -4 -3 8 -10 9 -19 3 -22 -5 -3
-12 0 -14 6 -3 7 -4 -1 -2 -19 2 -21 -2 -33 -11 -37 -9 -3 -13 -10 -9 -15 3
-5 1 -12 -5 -16 -5 -3 -10 -12 -10 -18 0 -7 4 -6 11 3 9 12 9 11 4 -5 -4 -11
-8 -25 -8 -32 0 -7 -4 -10 -9 -7 -5 3 -6 9 -3 14 3 4 0 19 -5 32 -10 23 -10
23 -6 1 2 -13 0 -26 -5 -29 -5 -3 -6 -10 -3 -16 4 -6 2 -8 -3 -5 -6 4 -14 0
-17 -9 -3 -8 -10 -13 -15 -9 -5 3 -12 1 -16 -5 -9 -15 -25 -12 -19 4 3 8 14
13 25 11 14 -3 19 1 17 13 -2 9 3 16 10 15 6 -2 12 2 12 7 0 18 -29 10 -35
-10 -4 -11 -10 -18 -15 -15 -5 3 -14 -4 -20 -15 -6 -12 -16 -18 -23 -14 -9 5
-8 3 1 -7 17 -18 15 -32 -4 -25 -8 3 -13 2 -10 -3 3 -4 -3 -16 -13 -25 -12
-11 -21 -13 -24 -6 -3 6 -4 5 -3 -2 2 -7 8 -13 13 -13 6 0 15 -4 20 -8 4 -5 3
-7 -4 -5 -6 2 -18 -5 -25 -15 -13 -17 -14 -17 -16 2 -4 44 -6 51 -14 51 -5 0
-6 -10 -3 -21 5 -14 3 -19 -3 -15 -6 3 -13 2 -17 -3 -3 -6 4 -8 17 -6 20 4 21
2 7 -8 -22 -17 -29 -43 -16 -57 7 -7 -1 -4 -18 6 l-30 18 23 -25 c12 -14 22
-29 22 -35 0 -5 -5 -1 -11 8 -5 9 -16 15 -24 12 -8 -4 -12 -10 -9 -15 6 -11
-10 -41 -22 -40 -5 1 -9 -3 -9 -8 0 -5 -3 -12 -7 -15 -5 -3 -6 -3 -3 1 3 3 0
12 -6 20 -6 7 -9 14 -5 14 3 1 11 3 16 4 6 1 15 3 21 4 5 0 7 6 3 12 -5 8 -9
8 -14 -1 -6 -9 -11 -7 -19 6 -11 18 -11 18 -9 0 2 -10 -3 -21 -10 -23 -8 -3
-10 2 -6 14 5 15 4 15 -5 3 -7 -11 -5 -20 7 -34 11 -12 12 -16 3 -11 -11 6
-13 4 -8 -9 5 -11 3 -16 -5 -14 -6 2 -12 14 -13 26 -1 12 -5 25 -8 28 -4 4 -4
-10 -2 -30 4 -27 2 -35 -7 -30 -6 4 -8 3 -4 -4 3 -5 1 -12 -6 -14 -8 -3 -8 -9
1 -24 10 -14 11 -15 7 -2 -3 10 -1 20 5 24 17 10 21 -3 9 -26 -10 -18 -14 -19
-28 -8 -12 10 -14 10 -8 1 4 -8 2 -13 -4 -13 -6 0 -8 -5 -4 -12 5 -7 3 -8 -6
-3 -10 6 -12 4 -7 -8 3 -9 2 -19 -3 -22 -9 -6 -7 28 5 60 6 18 5 18 -5 2 -6
-9 -16 -14 -22 -11 -8 5 -9 1 -5 -10 4 -9 3 -15 -2 -11 -5 3 -12 -1 -14 -7 -3
-7 -6 -4 -6 8 -1 11 5 26 12 33 6 8 0 6 -14 -3 -22 -14 -28 -14 -38 -2 -9 11
-8 15 3 19 11 4 13 1 9 -11 -6 -14 -5 -15 9 -2 14 13 14 16 2 23 -8 5 -12 12
-9 18 4 5 1 9 -5 9 -7 0 -9 -7 -6 -16 3 -8 2 -12 -4 -9 -15 9 -12 35 5 41 8 4
12 10 9 16 -3 5 -14 -1 -25 -13 -16 -19 -19 -20 -25 -5 -3 9 -10 14 -14 11 -5
-3 -7 9 -5 26 4 29 3 30 -9 14 -9 -13 -15 -15 -20 -6 -4 6 -12 8 -18 5 -6 -4
-2 -12 12 -19 19 -10 20 -13 6 -18 -10 -4 -15 -3 -12 2 3 5 -1 12 -10 15 -8 3
-13 10 -10 15 4 5 -2 12 -11 14 -17 4 -17 5 -1 6 11 1 15 6 12 15 -3 9 -13 12
-22 9 -11 -4 -8 2 7 15 24 22 19 27 -19 23 -11 -1 -10 2 4 13 10 9 23 13 29 9
6 -3 7 -1 3 5 -5 9 -15 8 -38 -4 -16 -9 -27 -11 -24 -5 8 13 -31 34 -46 25 -7
-4 -8 -3 -4 4 4 7 3 12 -3 12 -5 0 -11 -5 -13 -11 -2 -6 -9 1 -16 15 l-12 26
40 -20 c22 -11 40 -17 40 -13 0 4 6 -1 13 -10 8 -11 17 -14 26 -8 10 7 8 11
-10 16 -13 5 -25 7 -27 6 -1 -1 -15 5 -32 14 -20 11 -28 21 -25 35 2 11 0 18
-6 15 -8 -5 -13 7 -11 26 1 4 -10 17 -23 29 -19 18 -36 23 -75 23 -27 -1 -47
3 -44 8 3 5 0 9 -7 9 -7 0 -10 3 -7 6 4 3 15 1 26 -5 24 -13 64 10 42 24 -9 5
-11 4 -6 -3 4 -7 2 -12 -3 -12 -20 0 -26 5 -23 20 3 13 2 13 -7 0 -9 -13 -11
-13 -11 3 0 9 -5 17 -11 17 -5 0 -8 -4 -4 -9 3 -5 1 -12 -4 -16 -9 -5 -6 33 5
64 4 11 0 11 -14 -2 -23 -21 -39 -22 -18 -1 9 8 16 21 16 27 0 7 -5 5 -10 -5
-6 -9 -18 -15 -28 -13 -9 2 -20 4 -24 4 -15 2 -8 18 7 18 8 0 12 -3 10 -7 -2
-4 2 -7 10 -7 13 0 12 4 -2 19 -9 10 -18 16 -21 13 -2 -2 -19 7 -37 20 -17 14
-35 22 -39 18 -4 -4 -2 5 3 20 8 20 8 34 1 48 -13 23 -22 25 -13 2 5 -12 3
-14 -7 -8 -9 5 -11 4 -6 -4 4 -6 12 -9 17 -6 5 4 9 2 9 -4 0 -5 -9 -9 -19 -8
-14 1 -18 7 -15 24 3 13 0 23 -6 23 -6 0 -8 -4 -5 -10 3 -5 2 -10 -4 -10 -5 0
-13 9 -16 20 -6 18 -8 18 -21 5 -9 -8 -21 -15 -27 -15 -8 0 -8 3 1 9 7 4 15
23 17 42 3 24 2 30 -5 19 -5 -8 -10 -12 -11 -7 -1 4 -3 12 -4 17 -1 6 -3 15
-4 21 -1 8 -7 7 -18 -2 -15 -12 -16 -12 -10 3 3 10 2 20 -4 23 -5 4 -6 12 -3
18 5 8 3 8 -6 0 -11 -10 -17 -9 -32 4 -18 16 -19 16 -25 -5 -3 -12 -9 -22 -15
-22 -5 0 -4 8 2 19 7 14 7 22 0 26 -8 5 -7 11 1 21 8 10 8 14 0 14 -11 0 -15
-13 -12 -37 3 -22 -9 -14 -19 13 -7 16 -14 23 -22 18 -9 -6 -9 -3 1 9 12 15
10 18 -10 25 l-23 9 22 5 c12 4 20 2 17 -2 -3 -4 5 -6 17 -2 16 4 18 7 8 10
-8 3 -21 12 -28 21 -11 15 -12 15 -7 0 4 -10 0 -16 -10 -16 -9 0 -14 6 -11 14
3 7 2 12 -2 10 -4 -1 -7 3 -7 8 0 6 4 9 8 7 5 -1 6 2 2 8 -4 6 -20 0 -41 -17
-22 -16 -34 -21 -32 -12 2 8 -3 13 -12 11 -12 -3 -13 -1 -2 9 6 7 12 24 12 39
0 19 -3 22 -9 10 -6 -8 -7 -18 -5 -22 9 -15 -3 -8 -17 9 -10 11 -10 14 -1 9 7
-4 12 -2 12 5 0 7 7 20 16 30 16 17 15 18 -9 6 -14 -6 -24 -14 -22 -18 2 -3
-3 -6 -12 -6 -12 0 -11 5 7 19 21 17 21 18 2 18 -11 0 -22 -6 -25 -12 -2 -7
-8 -10 -12 -5 -5 4 0 14 11 21 10 8 16 18 11 22 -4 4 -7 2 -7 -6 0 -10 -4 -10
-17 1 -10 8 -14 9 -10 2 4 -6 3 -14 -3 -18 -9 -5 -14 6 -12 26 0 3 -10 5 -22
5 -12 0 -23 -6 -23 -13 0 -6 4 -10 9 -7 4 3 8 0 8 -5 0 -6 -4 -11 -10 -11 -7
0 -10 -368 -10 -1085 l0 -1085 1300 0 1300 0 0 1231 0 1230 -75 -2 -74 -2 15
-28z m18 5 c3 -8 2 -12 -4 -9 -6 3 -10 10 -10 16 0 14 7 11 14 -7z m-14 -113
c0 -6 -4 -12 -8 -15 -5 -3 -9 1 -9 9 0 8 4 15 9 15 4 0 8 -4 8 -9z m-75 -41
c-3 -5 -12 -10 -18 -10 -7 0 -6 4 3 10 19 12 23 12 15 0z m-65 -60 c0 -5 -5
-10 -11 -10 -5 0 -7 5 -4 10 3 6 8 10 11 10 2 0 4 -4 4 -10z m-2292 -45 c-3
-3 -9 2 -12 12 -6 14 -5 15 5 6 7 -7 10 -15 7 -18z m2245 -5 c10 -12 9 -12 -4
-2 -13 10 -19 9 -28 -1 -6 -8 -7 -18 -3 -23 4 -4 -1 -2 -11 5 -12 10 -14 17
-7 26 13 16 36 14 53 -5z m-80 -67 c-7 -2 -13 -9 -13 -14 0 -6 5 -7 11 -4 6 4
5 -2 -2 -13 -7 -12 -17 -18 -22 -15 -5 3 -3 9 4 14 12 7 12 9 0 9 -11 0 -11 3
-1 15 7 8 18 15 24 14 7 0 6 -2 -1 -6z m-1994 -71 c0 -14 -2 -13 -9 3 -5 12
-9 14 -9 6 -1 -8 -4 -12 -7 -8 -9 9 6 28 17 22 5 -4 9 -14 8 -23z m1953 -4
c-7 -7 -12 -8 -12 -2 0 6 3 14 7 17 3 4 9 5 12 2 2 -3 -1 -11 -7 -17z m-82
-53 c12 -17 12 -18 0 -7 -18 15 -34 16 -24 0 4 -7 3 -8 -5 -4 -9 6 -9 11 0 22
6 8 12 13 13 12 1 -2 8 -12 16 -23z m-1735 -73 c-2 -3 2 -10 11 -16 13 -10 13
-12 -5 -12 -11 0 -19 3 -19 6 0 3 -1 7 -2 10 -1 3 -3 13 -5 23 -3 15 -1 16 11
6 8 -6 12 -14 9 -17z m60 -41 c-3 -5 -1 -12 5 -16 6 -4 8 -11 5 -16 -4 -5 -1
-9 6 -9 7 0 10 -3 6 -6 -3 -3 -14 -1 -24 5 -14 8 -15 11 -3 11 12 1 11 3 -3
14 -14 11 -15 15 -5 19 19 8 20 8 13 -2z m1525 -35 c14 -18 14 -18 -7 -6 -12
8 -19 18 -16 23 3 4 6 7 7 5 1 -2 8 -12 16 -22z m-1473 -51 c0 -8 -4 -12 -9
-9 -5 3 -6 10 -3 15 9 13 12 11 12 -6z m1408 -24 c-3 -3 -10 1 -15 9 -9 13
-14 7 -11 -12 0 -4 -7 -4 -16 -1 -12 5 -14 3 -8 -7 5 -8 4 -11 -3 -6 -6 4 -9
13 -6 21 4 8 10 13 14 10 5 -3 12 -1 15 5 5 8 11 7 21 -1 8 -6 12 -14 9 -18z
m-1435 9 c0 -5 -5 -10 -11 -10 -5 0 -7 5 -4 10 3 6 8 10 11 10 2 0 4 -4 4 -10z
m85 -40 c-3 -5 -12 -10 -18 -10 -7 0 -6 4 3 10 19 12 23 12 15 0z m47 -45 c11
11 27 -21 18 -35 -8 -12 -10 -10 -10 8 0 13 -4 21 -9 17 -5 -3 -13 -1 -16 5
-5 8 -12 7 -23 -2 -15 -12 -16 -11 -3 5 9 12 17 14 26 7 6 -5 14 -8 17 -5z
m1162 -61 c3 -8 2 -12 -4 -9 -6 3 -10 10 -10 16 0 14 7 11 14 -7z m-46 -18
c15 5 15 4 -1 -6 -9 -6 -14 -16 -11 -22 4 -7 2 -8 -4 -4 -7 4 -12 1 -12 -9 0
-10 5 -13 12 -9 7 4 8 3 4 -4 -4 -6 -14 -8 -23 -5 -12 5 -14 3 -8 -8 5 -8 4
-11 0 -6 -12 10 -15 38 -4 31 5 -3 10 0 10 5 1 6 3 16 4 21 1 6 3 16 5 23 1 9
3 9 6 0 3 -7 13 -10 22 -7z m-863 -134 c-3 -3 2 -16 10 -29 14 -21 14 -23 0
-23 -8 0 -14 3 -14 8 1 4 1 14 0 22 -1 13 -2 13 -12 0 -9 -13 -10 -13 -8 0 1
8 1 23 0 34 -1 16 -3 17 -18 5 -11 -10 -14 -10 -9 -1 11 18 -5 15 -18 -4 -10
-13 -12 -13 -12 5 0 11 3 18 6 16 3 -2 12 0 20 5 10 6 22 2 37 -12 13 -12 21
-24 18 -26z m704 -46 c-20 -10 -26 -22 -31 -68 -1 -9 -5 -15 -9 -12 -4 2 -5
13 -2 24 4 16 2 19 -13 14 -13 -4 -10 2 10 19 16 14 26 29 23 34 -4 6 4 8 19
5 l25 -5 -22 -11z m-564 -116 c-3 -5 -12 -10 -18 -10 -7 0 -6 4 3 10 19 12 23
12 15 0z m455 6 c0 -3 -4 -8 -10 -11 -5 -3 -10 -1 -10 4 0 6 5 11 10 11 6 0
10 -2 10 -4z m-180 -220 c0 -3 -4 -8 -10 -11 -5 -3 -10 -1 -10 4 0 6 5 11 10
11 6 0 10 -2 10 -4z"/>
<path d="M2430 2360 c-6 -11 -16 -17 -22 -14 -7 5 -8 2 -3 -6 5 -8 3 -11 -6
-8 -8 3 -13 11 -11 17 1 7 -2 10 -8 6 -8 -5 -7 -12 2 -23 7 -10 13 -18 13 -19
1 -1 14 9 29 22 16 14 34 22 40 18 6 -4 5 1 -3 10 -17 21 -18 21 -31 -3z"/>
<path d="M2330 2320 c4 -28 0 -41 -10 -35 -5 3 -10 1 -10 -4 0 -6 5 -11 11
-11 5 0 8 -4 4 -9 -3 -5 -1 -12 4 -15 4 -3 8 2 8 12 0 34 3 43 12 38 5 -3 14
1 20 8 9 10 9 16 1 21 -6 4 -14 4 -17 1 -4 -3 -1 -6 6 -6 7 0 9 -5 5 -12 -5
-7 -11 -5 -21 8 -11 14 -14 15 -13 4z"/>
<path d="M67 2219 c7 -7 15 -10 18 -7 3 3 -2 9 -12 12 -14 6 -15 5 -6 -5z"/>
<path d="M175 2080 c-4 -6 -11 -7 -17 -4 -7 4 -8 2 -4 -5 6 -9 11 -9 22 0 14
11 18 19 10 19 -3 0 -8 -5 -11 -10z"/>
<path d="M264 1994 c1 -8 6 -17 11 -21 4 -4 5 -2 1 5 -4 6 -2 12 3 12 6 0 11
4 11 8 0 5 -6 9 -14 9 -7 0 -13 -6 -12 -13z"/>
<path d="M2010 1939 c0 -5 -5 -7 -12 -3 -7 4 -8 3 -4 -5 6 -8 12 -9 20 -2 7 6
17 7 21 3 5 -4 5 -1 1 6 -9 15 -26 16 -26 1z"/>
<path d="M550 1746 c0 -2 7 -7 16 -10 8 -3 12 -2 9 4 -6 10 -25 14 -25 6z"/>
<path d="M540 1721 c0 -6 4 -12 8 -15 5 -3 9 1 9 9 0 8 -4 15 -9 15 -4 0 -8
-4 -8 -9z"/>
<path d="M1750 1720 c0 -5 5 -10 11 -10 5 0 7 5 4 10 -3 6 -8 10 -11 10 -2 0
-4 -4 -4 -10z"/>
<path d="M575 1700 c3 -5 8 -10 11 -10 2 0 4 5 4 10 0 6 -5 10 -11 10 -5 0 -7
-4 -4 -10z"/>
<path d="M693 1614 c-3 -8 -2 -19 3 -24 5 -5 9 1 9 16 0 28 -3 30 -12 8z"/>
<path d="M816 1498 c3 -5 10 -6 15 -3 13 9 11 12 -6 12 -8 0 -12 -4 -9 -9z"/>
<path d="M1510 1499 c0 -5 5 -7 10 -4 6 3 10 8 10 11 0 2 -4 4 -10 4 -5 0 -10
-5 -10 -11z"/>
<path d="M1346 1318 c3 -4 9 -8 15 -8 5 0 9 4 9 8 0 5 -7 9 -15 9 -8 0 -12 -4
-9 -9z"/>
<path d="M980 1270 c5 -10 6 -21 2 -25 -4 -5 -1 -5 7 0 8 4 17 2 22 -6 7 -11
9 -11 9 -1 0 7 -7 15 -16 19 -8 3 -13 11 -11 18 3 6 -1 12 -8 12 -10 0 -11 -5
-5 -17z"/>
<path d="M1315 1270 c-3 -6 1 -7 9 -4 18 7 21 14 7 14 -6 0 -13 -4 -16 -10z"/>
<path d="M1047 1226 c-7 -18 18 -42 28 -26 3 5 -1 10 -9 10 -10 0 -13 6 -10
15 4 8 4 15 1 15 -3 0 -7 -6 -10 -14z"/>
</g>
</svg>
